<?xml version="1.0" encoding="UTF-8" standalone="no"?>
<!-- Created with Inkscape (http://www.inkscape.org/) -->

<svg
   width="122.35648mm"
   height="118.61411mm"
   viewBox="0 0 122.35648 118.61411"
   version="1.1"
   id="svg5"
   inkscape:version="1.2.2 (732a01da63, 2022-12-09)"
   sodipodi:docname="Kostka.svg"
   xmlns:inkscape="http://www.inkscape.org/namespaces/inkscape"
   xmlns:sodipodi="http://sodipodi.sourceforge.net/DTD/sodipodi-0.dtd"
   xmlns:xlink="http://www.w3.org/1999/xlink"
   xmlns="http://www.w3.org/2000/svg"
   xmlns:svg="http://www.w3.org/2000/svg">
  <sodipodi:namedview
     id="namedview7"
     pagecolor="#ffffff"
     bordercolor="#000000"
     borderopacity="0.25"
     inkscape:showpageshadow="2"
     inkscape:pageopacity="0.0"
     inkscape:pagecheckerboard="0"
     inkscape:deskcolor="#d1d1d1"
     inkscape:document-units="mm"
     showgrid="false"
     inkscape:zoom="0.74564394"
     inkscape:cx="-75.10287"
     inkscape:cy="301.7526"
     inkscape:window-width="1920"
     inkscape:window-height="1017"
     inkscape:window-x="1016"
     inkscape:window-y="-8"
     inkscape:window-maximized="1"
     inkscape:current-layer="layer1" />
  <defs
     id="defs2">
    <linearGradient
       inkscape:collect="always"
       id="linearGradient17229">
      <stop
         style="stop-color:#4bd4e2;stop-opacity:1;"
         offset="0"
         id="stop17225" />
      <stop
         style="stop-color:#4bd4e2;stop-opacity:0;"
         offset="1"
         id="stop17227" />
    </linearGradient>
    <linearGradient
       inkscape:collect="always"
       id="linearGradient17221">
      <stop
         style="stop-color:#4bd4e2;stop-opacity:1;"
         offset="0"
         id="stop17217" />
      <stop
         style="stop-color:#21c9de;stop-opacity:0;"
         offset="1"
         id="stop17219" />
    </linearGradient>
    <linearGradient
       inkscape:collect="always"
       id="linearGradient17205">
      <stop
         style="stop-color:#1ebbd3;stop-opacity:0;"
         offset="0"
         id="stop17203" />
      <stop
         style="stop-color:#4bd4e2;stop-opacity:1;"
         offset="0.6160714"
         id="stop17201" />
    </linearGradient>
    <inkscape:perspective
       sodipodi:type="inkscape:persp3d"
       inkscape:vp_x="11.354838 : 10.210888 : 1"
       inkscape:vp_y="0 : 999.99997 : 0"
       inkscape:vp_z="210 : -29.885891 : 1"
       inkscape:persp3d-origin="105 : -79.38589 : 1"
       id="perspective449" />
    <linearGradient
       inkscape:collect="always"
       xlink:href="#linearGradient17229"
       id="linearGradient18760"
       gradientUnits="userSpaceOnUse"
       gradientTransform="matrix(0.9999943,0,0,1.0086043,-24.592006,-2.4359211)"
       x1="131.42966"
       y1="85.083252"
       x2="52.219688"
       y2="28.879669" />
    <linearGradient
       inkscape:collect="always"
       xlink:href="#linearGradient17205"
       id="linearGradient18762"
       gradientUnits="userSpaceOnUse"
       gradientTransform="matrix(0.9999943,0,0,1.0086043,-24.592006,-2.4359211)"
       x1="128.03543"
       y1="78.95018"
       x2="163.29785"
       y2="98.521065" />
    <linearGradient
       inkscape:collect="always"
       xlink:href="#linearGradient17221"
       id="linearGradient18764"
       gradientUnits="userSpaceOnUse"
       gradientTransform="matrix(0.9999943,0,0,1.0086043,-24.592006,-2.4359211)"
       x1="108.13221"
       y1="135.0757"
       x2="63.192665"
       y2="41.235786" />
    <filter
       style="color-interpolation-filters:sRGB"
       inkscape:label="Drop Shadow"
       id="filter23815"
       x="-0.14821887"
       y="-0.15389964"
       width="1.3387574"
       height="1.3391947">
      <feFlood
         flood-opacity="0.972549"
         flood-color="rgb(4,4,4)"
         result="flood"
         id="feFlood23805" />
      <feComposite
         in="flood"
         in2="SourceGraphic"
         operator="in"
         result="composite1"
         id="feComposite23807" />
      <feGaussianBlur
         in="composite1"
         stdDeviation="5.60748"
         result="blur"
         id="feGaussianBlur23809" />
      <feOffset
         dx="3.89408"
         dy="2.64798"
         result="offset"
         id="feOffset23811" />
      <feComposite
         in="SourceGraphic"
         in2="offset"
         operator="over"
         result="composite2"
         id="feComposite23813" />
    </filter>
  </defs>
  <g
     inkscape:label="Warstwa 1"
     inkscape:groupmode="layer"
     id="layer1"
     transform="translate(-34.958455,-30.997085)">
    <g
       id="g17643"
       transform="matrix(0.99999149,0,0,1.0128643,38.891343,-34.707716)"
       style="fill:#95e7ef;fill-opacity:1;filter:url(#filter23815)">
      <rect
         style="fill:#95e7ef;fill-opacity:1;stroke:#000000;stroke-width:0.262349"
         id="rect234"
         width="69.492157"
         height="69.325821"
         x="9.9643707"
         y="96.297981"
         rx="0.99274504"
         ry="0.9903689" />
      <rect
         style="fill:#95e7ef;fill-opacity:1;stroke:#000000;stroke-width:0.165705"
         id="rect234-7"
         width="27.50845"
         height="69.867683"
         x="101.33846"
         y="159.52046"
         rx="0.39297783"
         ry="0.99810982"
         transform="matrix(0.78013821,-0.62560721,0,1,0,0)" />
      <path
         style="color:#000000;fill:#95e7ef;fill-opacity:1;stroke-width:0.988415;-inkscape-stroke:none"
         d="m 33.610307,78.677748 c -0.807849,0.01317 -2.406319,0.77323 -3.61367,1.714803 l -18.42547,14.369404 c -1.207352,0.941572 -1.575082,1.714803 -0.784015,1.714803 h 66.989926 c 0.79107,0 2.40633,-0.773231 3.61367,-1.714803 l 18.42548,-14.369404 c 1.207352,-0.941573 1.555032,-1.699291 0.784012,-1.714803 -14.951382,-0.300824 -29.778402,-0.606719 -66.989933,0 z m -0.169899,0.132498 h 66.989942 c 0.70266,0 0.83316,0.349174 -0.748042,1.582305 l -18.42547,14.369404 c -1.13386,0.88426 -2.6072,1.582305 -3.30986,1.582305 H 10.957051 c -0.702666,0 -0.387773,-0.698045 0.746088,-1.582305 L 30.12861,80.392551 c 1.133861,-0.88426 2.609132,-1.582305 3.311798,-1.582305 z"
         id="rect234-9"
         sodipodi:nodetypes="ssssssssssssssssss" />
      <path
         style="fill:#95e7ef;fill-opacity:1;stroke:#000000;stroke-width:0.177419"
         d="m 10.346049,95.722478 c 0.341915,-0.435978 -0.296577,0.07839 10.29068,-8.290192 5.305502,-4.193678 10.125398,-7.884406 10.710881,-8.201615 l 1.064516,-0.576747 34.197582,-0.004 c 18.80867,-0.0021 34.197582,0.0596 34.197582,0.137382 0,0.07778 -0.29939,0.426728 -0.66532,0.775446 -1.103932,1.052012 -19.220852,15.258198 -20.259732,15.886446 l -0.96537,0.583792 h -34.40716 c -32.743204,0 -34.395381,-0.015 -34.163659,-0.310483 z"
         id="path11431" />
      <path
         style="fill:#95e7ef;fill-opacity:1;stroke:#000000;stroke-width:0.179;stroke-dasharray:none"
         d="m 79.058558,165.63464 c -0.063,-0.0626 -0.11328,-15.64863 -0.11183,-34.63553 0.002,-27.04343 0.0506,-34.614342 0.22402,-34.949666 0.2466,-0.476832 21.469452,-17.128308 21.682012,-17.011737 0.15682,0.086 0.18077,68.965143 0.0242,69.546203 -0.0661,0.24543 -4.042352,3.46328 -10.687292,8.64898 -5.82009,4.54196 -10.67977,8.31606 -10.7993,8.38688 -0.11953,0.0709 -0.26883,0.0775 -0.33179,0.0149 z"
         id="path16194" />
      <path
         style="fill:#95e7ef;fill-opacity:1;stroke:#000000;stroke-width:0.177419"
         d="M 9.907367,165.25999 C 9.636288,164.96045 9.61374,162.31651 9.61374,130.82897 c 0,-23.17123 0.05889,-34.216598 0.183661,-34.449744 0.180612,-0.337473 0.754718,-0.343175 34.561287,-0.343175 26.5016,0 34.42641,0.04878 34.59053,0.212905 0.16413,0.164127 0.21291,8.088934 0.21291,34.590534 0,33.80657 -0.006,34.38068 -0.34318,34.56129 -0.23315,0.12478 -11.28808,0.18366 -34.48056,0.18366 -32.846432,0 -34.148499,-0.0123 -34.431021,-0.32445 z"
         id="path16196" />
      <path
         style="fill:#95e7ef;fill-opacity:1;stroke:#000000;stroke-width:0.0156818"
         d="m 79.334742,96.093413 c 2.64e-4,-0.0061 0.0091,-0.02193 0.0196,-0.03528 0.02827,-0.03592 1.5924,-1.259382 2.278444,-1.782196 0.327112,-0.249283 0.886452,-0.677516 1.242975,-0.951633 0.663596,-0.510206 0.876295,-0.655605 0.391229,-0.26744 -0.992187,0.793982 -2.624479,2.124789 -3.160781,2.576983 -0.174858,0.147434 -0.351557,0.285107 -0.392671,0.30594 -0.117848,0.05972 -0.379346,0.165772 -0.378796,0.153626 z"
         id="path16198" />
      <path
         style="fill:#95e7ef;fill-opacity:1;stroke:#000000;stroke-width:0.0156818"
         d="m 79.164543,98.842408 c -0.0013,-0.1035 -0.01056,-0.53943 -0.02074,-0.968733 -0.01892,-0.796332 -0.01151,-1.04781 0.0386,-1.307107 0.01765,-0.09128 0.02037,-0.09539 0.05493,-0.08243 0.02477,0.0093 0.03378,0.02244 0.02825,0.04118 -0.02471,0.08385 -0.0663,1.021025 -0.08679,1.956406 -0.0066,0.301876 -0.01302,0.464182 -0.01423,0.360683 z"
         id="path17166" />
      <path
         style="fill:#95e7ef;fill-opacity:1;stroke:#000000;stroke-width:0.0156818"
         d="m 78.95788,96.145137 c -0.06083,-0.0141 -0.07301,-0.02053 -0.04133,-0.02178 0.02471,-0.0011 0.115332,-0.0443 0.201393,-0.09629 0.08606,-0.05199 0.154059,-0.08904 0.151104,-0.08233 -0.003,0.0067 -0.02928,0.05983 -0.05849,0.118049 -0.05132,0.102277 -0.05503,0.105794 -0.10977,0.104092 -0.03116,-0.0011 -0.09547,-0.01077 -0.142904,-0.02175 z"
         id="path17170" />
      <path
         style="fill:#95e7ef;fill-opacity:1;stroke:#000000;stroke-width:0.0156818"
         d="m 79.365605,96.228081 c -0.03857,-0.01545 -0.03808,-0.01619 0.03001,-0.04586 0.08918,-0.03884 0.10828,-0.03153 0.05308,0.02035 -0.0369,0.03467 -0.05012,0.03873 -0.08309,0.02553 z"
         id="path17172" />
      <path
         style="fill:#95e7ef;fill-opacity:1;stroke:#000000;stroke-width:0.0156818"
         d="m 79.051968,96.248348 c 0,-0.02328 0.02397,-0.03791 0.105855,-0.06465 0.05822,-0.01902 0.200154,-0.07288 0.315415,-0.119726 0.11526,-0.04684 0.211775,-0.08295 0.214474,-0.08025 0.0027,0.0027 -0.02275,0.02814 -0.05659,0.05654 -0.06012,0.05047 -0.494117,0.237712 -0.551711,0.238024 -0.01664,9e-5 -0.02745,-0.0117 -0.02745,-0.02994 z"
         id="path17174" />
      <path
         style="fill:#95e7ef;fill-opacity:1;stroke:#000000;stroke-width:0.0156818"
         d="m 98.434679,81.107525 c 0,-0.01042 1.873281,-1.487411 2.363031,-1.863119 0.0114,-0.0088 0.0311,-0.0076 0.051,0.0031 0.039,0.02085 0.11504,0.164952 0.10649,0.201734 -0.005,0.02005 -0.011,0.01609 -0.0269,-0.01696 -0.0172,-0.0356 -0.0311,-0.04312 -0.0793,-0.04312 -0.0465,0 -0.0933,0.02331 -0.22879,0.114009 -0.28358,0.189793 -0.91204,0.6542 -1.780839,1.315974 -0.360519,0.274608 -0.404622,0.306046 -0.404622,0.288411 z"
         id="path17176" />
    </g>
    <rect
       style="fill:none;stroke:#000000;stroke-width:0.263474"
       id="rect234-6"
       width="69.49176"
       height="69.922318"
       x="48.851887"
       y="63.057167"
       rx="0.99273938"
       ry="0.99889034" />
    <rect
       style="fill:none;stroke:#000000;stroke-width:0.166697"
       id="rect234-7-8"
       width="27.601233"
       height="70.468849"
       x="151.69571"
       y="158.27679"
       rx="0.39430332"
       ry="1.0066979"
       transform="matrix(0.77751128,-0.628869,0,1,0,0)" />
    <path
       style="color:#000000;fill:#253f41;fill-opacity:1;stroke-width:0.992655;-inkscape-stroke:none"
       d="m 72.497689,45.285325 c -0.807844,0.01328 -2.406305,0.779883 -3.613649,1.729558 L 50.458675,61.507925 c -1.207345,0.949674 -1.575073,1.729558 -0.78401,1.729558 h 66.989545 c 0.79106,0 2.40631,-0.779884 3.61365,-1.729558 l 18.42537,-14.493042 c 1.20735,-0.949675 1.55503,-1.713913 0.78401,-1.729558 -14.9513,-0.303412 -29.77823,-0.611939 -66.989551,0 z m -0.169898,0.133638 h 66.989559 c 0.70266,0 0.83316,0.352178 -0.74804,1.59592 l -18.42536,14.493042 c -1.13385,0.891869 -2.60719,1.59592 -3.30984,1.59592 H 49.844563 c -0.702662,0 -0.387771,-0.704051 0.746083,-1.59592 L 69.016012,47.014883 c 1.133855,-0.891869 2.609117,-1.59592 3.311779,-1.59592 z"
       id="rect234-9-1"
       sodipodi:nodetypes="ssssssssssssssssss" />
    <path
       style="fill:url(#linearGradient18760);fill-opacity:1;stroke:#000000;stroke-width:0.17818"
       d="m 49.233564,62.476713 c 0.341913,-0.439729 -0.296575,0.07906 10.290621,-8.361523 5.305472,-4.229762 10.125341,-7.952246 10.71082,-8.272185 l 1.06451,-0.581709 34.197385,-0.004 c 18.80857,-0.0021 34.19739,0.06011 34.19739,0.138564 0,0.07845 -0.29939,0.430399 -0.66532,0.782118 -1.10392,1.061064 -19.22074,15.389484 -20.25961,16.023138 l -0.96537,0.588815 H 83.397028 c -32.743017,0 -34.395185,-0.01513 -34.163464,-0.313155 z"
       id="path11431-9" />
    <path
       style="fill:url(#linearGradient18762);fill-opacity:1;stroke:#000000;stroke-width:0.179768;stroke-dasharray:none"
       d="m 117.94568,132.99042 c -0.063,-0.0631 -0.11328,-15.78328 -0.11183,-34.933544 0.002,-27.27612 0.0506,-34.912175 0.22402,-35.250384 0.2466,-0.480935 21.46933,-17.275685 21.68189,-17.158111 0.15682,0.08674 0.18077,69.558539 0.0242,70.144599 -0.0661,0.24754 -4.04233,3.49308 -10.68723,8.7234 -5.82006,4.58104 -10.67971,8.38761 -10.79924,8.45904 -0.11953,0.0715 -0.26883,0.0782 -0.33179,0.015 z"
       id="path16194-3" />
    <path
       style="fill:url(#linearGradient18764);fill-opacity:1;stroke:#000000;stroke-width:0.17818"
       d="m 48.794885,132.61255 c -0.271078,-0.30212 -0.293626,-2.96881 -0.293626,-34.727278 0,-23.370603 0.05889,-34.511008 0.18366,-34.74616 0.180611,-0.340377 0.754714,-0.346128 34.56109,-0.346128 26.501451,0 34.426211,0.0492 34.590331,0.214737 0.16413,0.165539 0.21291,8.158534 0.21291,34.888161 0,34.097448 -0.006,34.676498 -0.34318,34.858668 -0.23315,0.12585 -11.28801,0.18524 -34.480361,0.18524 -32.846245,0 -34.148304,-0.0124 -34.430824,-0.32724 z"
       id="path16196-3" />
    <path
       style="fill:#09353a;fill-opacity:1;stroke:#000000;stroke-width:0.0157491"
       d="m 118.22186,62.85084 c 2.7e-4,-0.0062 0.009,-0.02212 0.0196,-0.03558 0.0283,-0.03623 1.59239,-1.270218 2.27843,-1.797531 0.32711,-0.251427 0.88645,-0.683345 1.24297,-0.959821 0.66359,-0.514596 0.87629,-0.661246 0.39123,-0.269741 -0.99218,0.800814 -2.62446,2.143071 -3.16076,2.599156 -0.17486,0.148703 -0.35156,0.28756 -0.39267,0.308573 -0.11785,0.06023 -0.37935,0.167198 -0.3788,0.154948 z"
       id="path16198-0" />
    <path
       style="fill:#09353a;fill-opacity:1;stroke:#000000;stroke-width:0.0157491"
       d="m 118.05167,65.623488 c -0.001,-0.104391 -0.0106,-0.544072 -0.0207,-0.977069 -0.0189,-0.803183 -0.0115,-1.056825 0.0386,-1.318353 0.0177,-0.09207 0.0204,-0.09621 0.0549,-0.08314 0.0248,0.0094 0.0338,0.02263 0.0282,0.04154 -0.0247,0.08457 -0.0663,1.02981 -0.0868,1.973239 -0.007,0.304474 -0.013,0.468176 -0.0142,0.363787 z"
       id="path17166-0" />
    <path
       style="fill:#09353a;fill-opacity:1;stroke:#000000;stroke-width:0.0157491"
       d="m 117.845,62.903009 c -0.0608,-0.01422 -0.073,-0.02071 -0.0413,-0.02197 0.0247,-0.0011 0.11534,-0.04468 0.2014,-0.09712 0.0861,-0.05244 0.15405,-0.08981 0.1511,-0.08304 -0.003,0.0068 -0.0293,0.06034 -0.0585,0.119065 -0.0513,0.103157 -0.055,0.106704 -0.10977,0.104988 -0.0312,-0.0011 -0.0955,-0.01086 -0.1429,-0.02194 z"
       id="path17170-2" />
    <path
       style="fill:#09353a;fill-opacity:1;stroke:#000000;stroke-width:0.0157491"
       d="m 118.25273,62.986666 c -0.0386,-0.01558 -0.0381,-0.01633 0.03,-0.04625 0.0892,-0.03918 0.10828,-0.0318 0.0531,0.02052 -0.0369,0.03497 -0.0501,0.03906 -0.0831,0.02575 z"
       id="path17172-3" />
    <path
       style="fill:#09353a;fill-opacity:1;stroke:#000000;stroke-width:0.0157491"
       d="m 117.93909,63.007108 c 0,-0.02348 0.024,-0.03824 0.10586,-0.06521 0.0582,-0.01918 0.20015,-0.07351 0.31541,-0.120756 0.11526,-0.04724 0.21177,-0.08366 0.21447,-0.08094 0.003,0.0027 -0.0228,0.02838 -0.0566,0.05703 -0.0601,0.0509 -0.49411,0.239758 -0.55171,0.240072 -0.0166,9.1e-5 -0.0275,-0.0118 -0.0275,-0.0302 z"
       id="path17174-2" />
    <path
       style="fill:#09353a;fill-opacity:1;stroke:#000000;stroke-width:0.0157491"
       d="m 137.32169,47.736008 c 0,-0.01051 1.87327,-1.500209 2.36302,-1.879149 0.0114,-0.0089 0.0311,-0.0077 0.051,0.0031 0.039,0.02103 0.11504,0.166372 0.10649,0.20347 -0.005,0.02022 -0.011,0.01623 -0.0269,-0.01711 -0.0172,-0.03591 -0.0311,-0.04349 -0.0793,-0.04349 -0.0465,0 -0.0933,0.02351 -0.22879,0.11499 -0.28358,0.191426 -0.91203,0.659829 -1.78083,1.327297 -0.36052,0.276971 -0.40462,0.308679 -0.40462,0.290893 z"
       id="path17176-5" />
    <path
       style="fill:#09353a;fill-opacity:1;stroke:#000000;stroke-width:0.0592698"
       d=""
       id="path17168"
       transform="scale(0.26458333)" />
  </g>
</svg>
